<?xml version="1.0" encoding="utf-8" ?>
<svg baseProfile="tiny" height="240" version="1.2" width="315.0" xmlns="http://www.w3.org/2000/svg" xmlns:ev="http://www.w3.org/2001/xml-events" xmlns:xlink="http://www.w3.org/1999/xlink"><defs /><rect fill="#eeeeee" height="20" stroke="black" stroke-width="1" width="20" x="150.0" y="0" /><text fill="black" font-family="Roboto Bold" font-size="10.0" text-anchor="middle" x="160.0" y="13.333333333333334">M</text><rect fill="#eeeeee" height="20" stroke="black" stroke-width="1" width="20" x="170.0" y="0" /><text fill="black" font-family="Roboto Bold" font-size="10.0" text-anchor="middle" x="180.0" y="13.333333333333334">T</text><rect fill="#eeeeee" height="20" stroke="black" stroke-width="1" width="20" x="190.0" y="0" /><text fill="black" font-family="Roboto Bold" font-size="10.0" text-anchor="middle" x="200.0" y="13.333333333333334">W</text><rect fill="#eeeeee" height="20" stroke="black" stroke-width="1" width="20" x="210.0" y="0" /><text fill="black" font-family="Roboto Bold" font-size="10.0" text-anchor="middle" x="220.0" y="13.333333333333334">T</text><rect fill="#eeeeee" height="20" stroke="black" stroke-width="1" width="20" x="230.0" y="0" /><text fill="black" font-family="Roboto Bold" font-size="10.0" text-anchor="middle" x="240.0" y="13.333333333333334">F</text><rect fill="#eeeeee" height="20" stroke="black" stroke-width="1" width="20" x="250.0" y="0" /><text fill="black" font-family="Roboto Bold" font-size="10.0" text-anchor="middle" x="260.0" y="13.333333333333334">S</text><rect fill="#eeeeee" height="20" stroke="black" stroke-width="1" width="20" x="270.0" y="0" /><text fill="black" font-family="Roboto Bold" font-size="10.0" text-anchor="middle" x="280.0" y="13.333333333333334">S</text><rect fill="#eeeeee" height="20" stroke="black" stroke-width="1" width="150.0" x="0" y="20" /><text fill="black" font-family="Roboto Bold" font-size="10.0" text-anchor="middle" x="75.0" y="33.333333333333336">W10 Mar 03–Mar 09</text><rect fill="#cccccc" height="20" stroke="black" stroke-width="1" width="20" x="150.0" y="20" /><rect fill="#cccccc" height="20" stroke="black" stroke-width="1" width="20" x="170.0" y="20" /><rect fill="#cccccc" height="20" stroke="black" stroke-width="1" width="20" x="190.0" y="20" /><rect fill="#cccccc" height="20" stroke="black" stroke-width="1" width="20" x="210.0" y="20" /><rect fill="#cccccc" height="20" stroke="black" stroke-width="1" width="20" x="230.0" y="20" /><rect fill="#cccccc" height="20" stroke="black" stroke-width="1" width="20" x="250.0" y="20" /><rect fill="#cccccc" height="20" stroke="black" stroke-width="1" width="20" x="270.0" y="20" /><line stroke="black" stroke-width="1" x1="295.0" x2="315.0" y1="40" y2="40" /><rect fill="#eeeeee" height="20" stroke="black" stroke-width="1" width="150.0" x="0" y="40" /><text fill="black" font-family="Roboto Bold" font-size="10.0" text-anchor="middle" x="75.0" y="53.333333333333336">W11 Mar 10–Mar 16</text><rect fill="#cccccc" height="20" stroke="black" stroke-width="1" width="20" x="150.0" y="40" /><rect fill="#cccccc" height="20" stroke="black" stroke-width="1" width="20" x="170.0" y="40" /><rect fill="#cccccc" height="20" stroke="black" stroke-width="1" width="20" x="190.0" y="40" /><rect fill="#cccccc" height="20" stroke="black" stroke-width="1" width="20" x="210.0" y="40" /><rect fill="#cccccc" height="20" stroke="black" stroke-width="1" width="20" x="230.0" y="40" /><rect fill="#cccccc" height="20" stroke="black" stroke-width="1" width="20" x="250.0" y="40" /><rect fill="#cccccc" height="20" stroke="black" stroke-width="1" width="20" x="270.0" y="40" /><line stroke="black" stroke-width="1" x1="295.0" x2="315.0" y1="60" y2="60" /><rect fill="#eeeeee" height="20" stroke="black" stroke-width="1" width="150.0" x="0" y="60" /><text fill="black" font-family="Roboto Bold" font-size="10.0" text-anchor="middle" x="75.0" y="73.33333333333333">W12 Mar 17–Mar 23</text><rect fill="#cccccc" height="20" stroke="black" stroke-width="1" width="20" x="150.0" y="60" /><rect fill="#cccccc" height="20" stroke="black" stroke-width="1" width="20" x="170.0" y="60" /><rect fill="#cccccc" height="20" stroke="black" stroke-width="1" width="20" x="190.0" y="60" /><rect fill="#cccccc" height="20" stroke="black" stroke-width="1" width="20" x="210.0" y="60" /><rect fill="#cccccc" height="20" stroke="black" stroke-width="1" width="20" x="230.0" y="60" /><rect fill="#cccccc" height="20" stroke="black" stroke-width="1" width="20" x="250.0" y="60" /><rect fill="#cccccc" height="20" stroke="black" stroke-width="1" width="20" x="270.0" y="60" /><line stroke="black" stroke-width="1" x1="295.0" x2="315.0" y1="80" y2="80" /><rect fill="#eeeeee" height="20" stroke="black" stroke-width="1" width="150.0" x="0" y="80" /><text fill="black" font-family="Roboto Bold" font-size="10.0" text-anchor="middle" x="75.0" y="93.33333333333333">W13 Mar 24–Mar 30</text><rect fill="#cccccc" height="20" stroke="black" stroke-width="1" width="20" x="150.0" y="80" /><rect fill="#cccccc" height="20" stroke="black" stroke-width="1" width="20" x="170.0" y="80" /><rect fill="#cccccc" height="20" stroke="black" stroke-width="1" width="20" x="190.0" y="80" /><rect fill="#cccccc" height="20" stroke="black" stroke-width="1" width="20" x="210.0" y="80" /><rect fill="#cccccc" height="20" stroke="black" stroke-width="1" width="20" x="230.0" y="80" /><rect fill="#cccccc" height="20" stroke="black" stroke-width="1" width="20" x="250.0" y="80" /><rect fill="#cccccc" height="20" stroke="black" stroke-width="1" width="20" x="270.0" y="80" /><line stroke="black" stroke-width="1" x1="295.0" x2="315.0" y1="100" y2="100" /><rect fill="#eeeeee" height="20" stroke="black" stroke-width="1" width="150.0" x="0" y="100" /><text fill="black" font-family="Roboto Bold" font-size="10.0" text-anchor="middle" x="75.0" y="113.33333333333333">W14 Mar 31–Apr 06</text><rect fill="#cccccc" height="20" stroke="black" stroke-width="1" width="20" x="150.0" y="100" /><rect fill="#cccccc" height="20" stroke="black" stroke-width="1" width="20" x="170.0" y="100" /><rect fill="#cccccc" height="20" stroke="black" stroke-width="1" width="20" x="190.0" y="100" /><rect fill="#cccccc" height="20" stroke="black" stroke-width="1" width="20" x="210.0" y="100" /><rect fill="#cccccc" height="20" stroke="black" stroke-width="1" width="20" x="230.0" y="100" /><rect fill="#cccccc" height="20" stroke="black" stroke-width="1" width="20" x="250.0" y="100" /><rect fill="#cccccc" height="20" stroke="black" stroke-width="1" width="20" x="270.0" y="100" /><line stroke="black" stroke-width="1" x1="295.0" x2="315.0" y1="120" y2="120" /><rect fill="#cccccc" height="20" stroke="black" stroke-width="1" width="20" x="150.0" y="100" /><rect fill="#cccccc" height="20" stroke="black" stroke-width="1" width="20" x="170.0" y="100" /><rect fill="#cccccc" height="20" stroke="black" stroke-width="1" width="20" x="190.0" y="100" /><rect fill="#cccccc" height="20" stroke="black" stroke-width="1" width="20" x="210.0" y="100" /><rect fill="#cccccc" height="20" stroke="black" stroke-width="1" width="20" x="230.0" y="100" /><rect fill="#cccccc" height="20" stroke="black" stroke-width="1" width="20" x="250.0" y="100" /><rect fill="#cccccc" height="20" stroke="black" stroke-width="1" width="20" x="270.0" y="100" /><line stroke="black" stroke-width="1" x1="295.0" x2="315.0" y1="120" y2="120" /><rect fill="#eeeeee" height="20" stroke="black" stroke-width="1" width="150.0" x="0" y="120" /><text fill="black" font-family="Roboto Bold" font-size="10.0" text-anchor="middle" x="75.0" y="133.33333333333334">W15 Apr 07–Apr 13</text><rect fill="#cccccc" height="20" stroke="black" stroke-width="1" width="20" x="150.0" y="120" /><rect fill="#cccccc" height="20" stroke="black" stroke-width="1" width="20" x="170.0" y="120" /><rect fill="#cccccc" height="20" stroke="black" stroke-width="1" width="20" x="190.0" y="120" /><rect fill="#cccccc" height="20" stroke="black" stroke-width="1" width="20" x="210.0" y="120" /><rect fill="#cccccc" height="20" stroke="black" stroke-width="1" width="20" x="230.0" y="120" /><rect fill="#cccccc" height="20" stroke="black" stroke-width="1" width="20" x="250.0" y="120" /><rect fill="#cccccc" height="20" stroke="black" stroke-width="1" width="20" x="270.0" y="120" /><line stroke="black" stroke-width="1" x1="295.0" x2="315.0" y1="140" y2="140" /><rect fill="#eeeeee" height="20" stroke="black" stroke-width="1" width="150.0" x="0" y="140" /><text fill="black" font-family="Roboto Bold" font-size="10.0" text-anchor="middle" x="75.0" y="153.33333333333334">W16 Apr 14–Apr 20</text><rect fill="#cccccc" height="20" stroke="black" stroke-width="1" width="20" x="150.0" y="140" /><rect fill="#cccccc" height="20" stroke="black" stroke-width="1" width="20" x="170.0" y="140" /><rect fill="#cccccc" height="20" stroke="black" stroke-width="1" width="20" x="190.0" y="140" /><rect fill="#cccccc" height="20" stroke="black" stroke-width="1" width="20" x="210.0" y="140" /><rect fill="#cccccc" height="20" stroke="black" stroke-width="1" width="20" x="230.0" y="140" /><rect fill="#cccccc" height="20" stroke="black" stroke-width="1" width="20" x="250.0" y="140" /><rect fill="#cccccc" height="20" stroke="black" stroke-width="1" width="20" x="270.0" y="140" /><line stroke="black" stroke-width="1" x1="295.0" x2="315.0" y1="160" y2="160" /><rect fill="#eeeeee" height="20" stroke="black" stroke-width="1" width="150.0" x="0" y="160" /><text fill="black" font-family="Roboto Bold" font-size="10.0" text-anchor="middle" x="75.0" y="173.33333333333334">W17 Apr 21–Apr 27</text><rect fill="#cccccc" height="20" stroke="black" stroke-width="1" width="20" x="150.0" y="160" /><rect fill="#cccccc" height="20" stroke="black" stroke-width="1" width="20" x="170.0" y="160" /><rect fill="#cccccc" height="20" stroke="black" stroke-width="1" width="20" x="190.0" y="160" /><rect fill="#cccccc" height="20" stroke="black" stroke-width="1" width="20" x="210.0" y="160" /><rect fill="#cccccc" height="20" stroke="black" stroke-width="1" width="20" x="230.0" y="160" /><rect fill="#cccccc" height="20" stroke="black" stroke-width="1" width="20" x="250.0" y="160" /><rect fill="#cccccc" height="20" stroke="black" stroke-width="1" width="20" x="270.0" y="160" /><line stroke="black" stroke-width="1" x1="295.0" x2="315.0" y1="180" y2="180" /><rect fill="#eeeeee" height="20" stroke="black" stroke-width="1" width="150.0" x="0" y="180" /><text fill="black" font-family="Roboto Bold" font-size="10.0" text-anchor="middle" x="75.0" y="193.33333333333334">W18 Apr 28–May 04</text><rect fill="#cccccc" height="20" stroke="black" stroke-width="1" width="20" x="150.0" y="180" /><rect fill="#cccccc" height="20" stroke="black" stroke-width="1" width="20" x="170.0" y="180" /><rect fill="#cccccc" height="20" stroke="black" stroke-width="1" width="20" x="190.0" y="180" /><rect fill="#cccccc" height="20" stroke="black" stroke-width="1" width="20" x="210.0" y="180" /><rect fill="#cccccc" height="20" stroke="black" stroke-width="1" width="20" x="230.0" y="180" /><rect fill="#cccccc" height="20" stroke="black" stroke-width="1" width="20" x="250.0" y="180" /><rect fill="#cccccc" height="20" stroke="black" stroke-width="1" width="20" x="270.0" y="180" /><line stroke="black" stroke-width="1" x1="295.0" x2="315.0" y1="200" y2="200" /><rect fill="#cccccc" height="20" stroke="black" stroke-width="1" width="20" x="150.0" y="180" /><rect fill="#cccccc" height="20" stroke="black" stroke-width="1" width="20" x="170.0" y="180" /><rect fill="#cccccc" height="20" stroke="black" stroke-width="1" width="20" x="190.0" y="180" /><rect fill="#cccccc" height="20" stroke="black" stroke-width="1" width="20" x="210.0" y="180" /><rect fill="#cccccc" height="20" stroke="black" stroke-width="1" width="20" x="230.0" y="180" /><rect fill="#cccccc" height="20" stroke="black" stroke-width="1" width="20" x="250.0" y="180" /><rect fill="#cccccc" height="20" stroke="black" stroke-width="1" width="20" x="270.0" y="180" /><line stroke="black" stroke-width="1" x1="295.0" x2="315.0" y1="200" y2="200" /><rect fill="#eeeeee" height="20" stroke="black" stroke-width="1" width="150.0" x="0" y="200" /><text fill="black" font-family="Roboto Bold" font-size="10.0" text-anchor="middle" x="75.0" y="213.33333333333334">W19 May 05–May 11</text><rect fill="#cccccc" height="20" stroke="black" stroke-width="1" width="20" x="150.0" y="200" /><rect fill="#cccccc" height="20" stroke="black" stroke-width="1" width="20" x="170.0" y="200" /><rect fill="#cccccc" height="20" stroke="black" stroke-width="1" width="20" x="190.0" y="200" /><rect fill="#cccccc" height="20" stroke="black" stroke-width="1" width="20" x="210.0" y="200" /><rect fill="#cccccc" height="20" stroke="black" stroke-width="1" width="20" x="230.0" y="200" /><rect fill="#cccccc" height="20" stroke="black" stroke-width="1" width="20" x="250.0" y="200" /><rect fill="#cccccc" height="20" stroke="black" stroke-width="1" width="20" x="270.0" y="200" /><line stroke="black" stroke-width="1" x1="295.0" x2="315.0" y1="220" y2="220" /><rect fill="#eeeeee" height="20" stroke="black" stroke-width="1" width="150.0" x="0" y="220" /><text fill="black" font-family="Roboto Bold" font-size="10.0" text-anchor="middle" x="75.0" y="233.33333333333334">W20 May 12–May 18</text><rect fill="#cccccc" height="20" stroke="black" stroke-width="1" width="20" x="150.0" y="220" /><rect fill="#cccccc" height="20" stroke="black" stroke-width="1" width="20" x="170.0" y="220" /><rect fill="#cccccc" height="20" stroke="black" stroke-width="1" width="20" x="190.0" y="220" /><rect fill="#cccccc" height="20" stroke="black" stroke-width="1" width="20" x="210.0" y="220" /><rect fill="#cccccc" height="20" stroke="black" stroke-width="1" width="20" x="230.0" y="220" /><rect fill="#cccccc" height="20" stroke="black" stroke-width="1" width="20" x="250.0" y="220" /><rect fill="#cccccc" height="20" stroke="black" stroke-width="1" width="20" x="270.0" y="220" /><line stroke="black" stroke-width="1" x1="295.0" x2="315.0" y1="240" y2="240" /></svg>